<svg width="200" height="200" viewBox="0 0 200 200" xmlns="http://www.w3.org/2000/svg">
  <!-- Background circle -->
  <circle cx="100" cy="100" r="95" fill="#28a745" opacity="0.1"/>

  <!-- Leaf shape -->
  <path d="M100 40 Q120 60, 120 90 Q120 110, 100 130 Q80 110, 80 90 Q80 60, 100 40 Z"
        fill="#28a745" opacity="0.8"/>

  <!-- Stem -->
  <rect x="97" y="130" width="6" height="30" fill="#28a745"/>

  <!-- Temperature sensor icon -->
  <circle cx="70" cy="120" r="8" fill="#ff6b6b" opacity="0.7"/>
  <rect x="68" y="105" width="4" height="15" fill="#ff6b6b" opacity="0.7"/>

  <!-- Humidity drop icon -->
  <path d="M130 110 Q135 120, 130 125 Q125 120, 130 110 Z"
        fill="#4dabf7" opacity="0.7"/>

  <!-- Circuit lines -->
  <line x1="70" y1="128" x2="70" y2="145" stroke="#666" stroke-width="2" opacity="0.5"/>
  <line x1="130" y1="128" x2="130" y2="145" stroke="#666" stroke-width="2" opacity="0.5"/>

  <!-- Tech elements -->
  <circle cx="70" cy="145" r="3" fill="#666" opacity="0.6"/>
  <circle cx="130" cy="145" r="3" fill="#666" opacity="0.6"/>

  <!-- Text -->
  <text x="100" y="180" font-family="Arial, sans-serif" font-size="16" font-weight="bold"
        fill="#28a745" text-anchor="middle">FarmTech</text>
</svg>
